<?xml version="1.0" standalone="no"?>
<!DOCTYPE svg PUBLIC "-//W3C//DTD SVG 20010904//EN"
 "http://www.w3.org/TR/2001/REC-SVG-20010904/DTD/svg10.dtd">
<svg version="1.0" xmlns="http://www.w3.org/2000/svg"
 width="1001.000000pt" height="1001.000000pt" viewBox="0 0 1001.000000 1001.000000"
 preserveAspectRatio="xMidYMid meet">
<metadata>
Created by potrace 1.14, written by Peter Selinger 2001-2017
</metadata>
<g transform="translate(0.000000,1001.000000) scale(0.100000,-0.100000)"
fill="#000000" stroke="none">
<path d="M2496 9739 c-75 -28 -106 -54 -186 -156 -41 -52 -83 -104 -92 -116
-10 -12 -157 -202 -329 -422 -357 -459 -339 -436 -417 -536 -95 -121 -107
-149 -107 -254 0 -74 4 -97 23 -132 35 -66 79 -110 140 -140 l57 -28 2237 -3
2238 -2 277 222 c153 123 280 225 283 228 3 3 163 131 355 285 193 154 352
282 355 285 3 3 72 59 155 125 82 65 158 127 170 136 11 10 117 95 235 189
118 94 222 185 232 201 19 36 10 81 -22 114 l-21 20 -2767 1 c-2660 2 -2770 1
-2816 -17z"/>
<path d="M8505 9289 c-17 -11 -66 -49 -140 -111 -11 -9 -162 -132 -335 -273
-173 -142 -349 -285 -390 -319 -41 -35 -286 -235 -545 -446 -556 -453 -585
-477 -607 -503 -17 -18 -18 -148 -18 -2428 l0 -2408 24 -28 24 -28 1037 0
1037 0 24 28 24 28 0 3219 0 3219 -22 26 c-26 29 -83 41 -113 24z"/>
<path d="M1389 7231 l-29 -29 0 -3211 c0 -2331 3 -3217 11 -3234 28 -62 123
-60 179 3 3 3 40 34 83 68 42 34 87 71 100 81 12 11 288 236 612 501 325 265
599 489 610 498 11 10 70 58 130 107 333 271 433 356 439 370 3 9 6 1097 6
2417 l0 2400 -29 29 -29 29 -1027 0 -1027 0 -29 -29z"/>
<path d="M3954 2051 c-18 -3 -103 -66 -204 -151 -9 -8 -31 -26 -48 -39 -35
-26 -665 -532 -697 -559 -11 -9 -99 -80 -195 -156 -96 -77 -176 -143 -178
-148 -2 -4 -8 -8 -14 -8 -6 0 -16 -6 -22 -14 -6 -7 -67 -58 -136 -112 -69 -54
-127 -101 -130 -104 -3 -3 -104 -84 -224 -180 -143 -114 -223 -185 -231 -204
-15 -36 -5 -80 26 -107 22 -19 83 -19 2790 -19 l2768 0 56 21 c75 28 99 54
390 429 135 173 256 329 269 345 235 298 431 557 443 585 25 57 25 165 1 230
-28 73 -105 148 -178 174 -52 19 -114 19 -2260 20 -1213 1 -2215 -1 -2226 -3z"/>
</g>
</svg>
