<?xml version="1.0" standalone="no"?>
<!DOCTYPE svg PUBLIC "-//W3C//DTD SVG 20010904//EN"
 "http://www.w3.org/TR/2001/REC-SVG-20010904/DTD/svg10.dtd">
<svg version="1.0" xmlns="http://www.w3.org/2000/svg"
 width="260.000000pt" height="260.000000pt" viewBox="0 0 260.000000 260.000000"
 preserveAspectRatio="xMidYMid meet">
<metadata>
Created by potrace 1.14, written by Peter Selinger 2001-2017
</metadata>
<g transform="translate(0.000000,260.000000) scale(0.100000,-0.100000)"
fill="#000000" stroke="none">
<path d="M65 2580 c-16 -11 -38 -34 -47 -52 -17 -31 -18 -109 -18 -1228 0
-1336 -5 -1242 70 -1282 33 -17 88 -18 1233 -18 1322 0 1234 -4 1276 64 l21
34 -2 1214 -3 1213 -25 27 c-14 15 -38 32 -53 37 -19 8 -409 11 -1225 11
-1175 0 -1198 0 -1227 -20z"/>
</g>
</svg>
