<?xml version="1.0" encoding="UTF-8"?>
<svg id="c" data-name="Camada 1" xmlns="http://www.w3.org/2000/svg" xmlns:xlink="http://www.w3.org/1999/xlink" viewBox="0 0 842.67 1000">
  <defs>
    <style>
      .j {
        fill: url(#e);
      }

      .j, .k, .l, .m {
        stroke-width: 0px;
      }

      .n {
        clip-path: url(#g);
      }

      .o, .m {
        fill: url(#f);
      }

      .p {
        clip-path: url(#d);
      }

      .k {
        fill: none;
      }

      .l {
        fill: url(#h);
      }
    </style>
    <clipPath id="d">
      <path class="k" d="m265.07,274.33H66.6c-5.08,0-9.2,4.12-9.2,9.2v636.63c0,7.76,9.01,12.04,15.02,7.13,60.65-49.63,148.86-121.72,198.48-162.26,2.14-1.75,3.38-4.36,3.38-7.13v-474.36c0-5.08-4.12-9.2-9.2-9.2Zm489.77,520.7h-436.1c-2.1,0-4.13.72-5.76,2.03l-201.43,161.78c-6.78,5.44-2.93,16.38,5.76,16.38h544.45c9.37,0,18.2-4.3,23.95-11.69l93.08-119.47c15.55-19.93,1.33-49.03-23.95-49.03Z"/>
    </clipPath>
    <linearGradient id="e" data-name="Gradiente sem nome 31" x1="-258.47" y1="597.13" x2="862.97" y2="597.13" gradientUnits="userSpaceOnUse">
      <stop offset="0" stop-color="#32ea94"/>
      <stop offset="1" stop-color="#6b65f2"/>
    </linearGradient>
    <linearGradient id="f" data-name="Gradiente sem nome 32" x1="57.4" y1="375.23" x2="785.27" y2="375.23" gradientUnits="userSpaceOnUse">
      <stop offset="0" stop-color="#ea3259"/>
      <stop offset=".24" stop-color="#dc2d74"/>
      <stop offset=".75" stop-color="#b922bb"/>
      <stop offset="1" stop-color="#a71de0"/>
    </linearGradient>
    <clipPath id="g">
      <path class="m" d="m577.6,725.67h198.46c5.08,0,9.2-4.12,9.2-9.2V79.84c0-7.76-9.01-12.04-15.02-7.13-60.65,49.63-148.86,121.72-198.48,162.26-2.14,1.75-3.38,4.36-3.38,7.13v474.36c0,5.08,4.12,9.2,9.2,9.2ZM87.83,204.98h436.1c2.1,0,4.13-.72,5.76-2.03l201.43-161.78c6.78-5.44,2.93-16.38-5.76-16.38H180.91c-9.37,0-18.2,4.3-23.95,11.69l-93.08,119.47c-15.55,19.93-1.33,49.03,23.95,49.03Z"/>
    </clipPath>
    <linearGradient id="h" data-name="Gradiente sem nome 32" x1="-6355.85" y1="457.86" x2="-5234.41" y2="457.86" gradientTransform="translate(6335.54 -54.99)" xlink:href="#f"/>
  </defs>
  <g class="p">
    <rect class="j" x="-258.47" y="36.41" width="1121.45" height="1121.45"/>
  </g>
  <g>
    <path class="o" d="m577.6,725.67h198.46c5.08,0,9.2-4.12,9.2-9.2V79.84c0-7.76-9.01-12.04-15.02-7.13-60.65,49.63-148.86,121.72-198.48,162.26-2.14,1.75-3.38,4.36-3.38,7.13v474.36c0,5.08,4.12,9.2,9.2,9.2ZM87.83,204.98h436.1c2.1,0,4.13-.72,5.76-2.03l201.43-161.78c6.78-5.44,2.93-16.38-5.76-16.38H180.91c-9.37,0-18.2,4.3-23.95,11.69l-93.08,119.47c-15.55,19.93-1.33,49.03,23.95,49.03Z"/>
    <g class="n">
      <rect class="l" x="-20.31" y="-157.86" width="1121.45" height="1121.45" transform="translate(1080.83 805.73) rotate(180)"/>
    </g>
  </g>
</svg>