<?xml version="1.0" encoding="UTF-8"?>
<svg id="c" data-name="Camada 1" xmlns="http://www.w3.org/2000/svg" xmlns:xlink="http://www.w3.org/1999/xlink" viewBox="0 0 500 178.89">
  <defs>
    <style>
      .l, .m {
        fill: url(#h);
      }

      .n {
        fill: url(#e);
      }

      .n, .o, .p, .m, .q {
        stroke-width: 0px;
      }

      .o {
        fill: url(#g);
      }

      .r {
        clip-path: url(#d);
      }

      .s {
        clip-path: url(#i);
      }

      .p {
        fill: none;
      }

      .t {
        clip-path: url(#f);
      }

      .q {
        fill: url(#j);
      }
    </style>
    <clipPath id="d">
      <path class="p" d="m146.63,92.92c0,19.63-13.51,29.44-40.52,29.44-31.29,0-44.8-9.81-44.8-29.44v-35.18c0-.8.65-1.45,1.45-1.45h17.11c.8,0,1.45.65,1.45,1.45v35.18c0,9.62,4.08,12.73,24.78,12.73,15.45,0,20.31-3.6,20.31-12.73v-35.18c0-.8.65-1.45,1.45-1.45h18.76v36.64Zm90.84,14l-10.68,13.81c-.28.36-.7.56-1.15.56h-31.94c-22.55,0-39.16-14.28-39.16-33.14s16.62-31.87,39.16-31.87h42.64c1.2,0,1.89,1.38,1.15,2.34l-10.7,14c-.27.36-.7.57-1.15.57h-31.93c-10.88,0-19.05,6.51-19.05,15.84s8.07,15.55,19.05,15.55h42.62c1.21,0,1.89,1.39,1.15,2.34Zm33.12,12.64l10.56-14.54c.21-.28.53-.45.88-.45h15.77c3.03,0,6.47,0,9.31.09.9.03,1.45-.99.93-1.72-1.63-2.28-3.63-5.2-5.28-7.6l-10.78-15.9c-.43-.63-1.35-.64-1.79-.02l-29.28,41.4c-.2.29-.54.46-.89.46h-21.14c-.88,0-1.4-1-.89-1.72l40.47-57.07c2.72-3.79,6.71-7.29,13.02-7.29s10.01,3.21,12.83,7.29l39.44,57.08c.5.72-.02,1.71-.9,1.71h-71.39c-.89,0-1.4-1.01-.88-1.73Zm143.81-37.33c15.84,0,24.39,5.93,24.39,17.78,0,13.31-8.07,21.28-27.89,21.28h-57.58c-1.21,0-1.89-1.39-1.15-2.34l10.68-13.81c.28-.36.7-.56,1.15-.56h48.46c4.76,0,6.9-1.36,6.9-4.76s-2.14-4.67-6.9-4.67h-35.37c-16.71,0-24.39-7.48-24.39-18.66,0-12.24,8.16-20.21,27.89-20.21h53.52c1.2,0,1.89,1.38,1.15,2.34l-10.7,14c-.27.36-.7.57-1.15.57h-44.37c-4.66,0-6.9,1.17-6.9,4.47s2.24,4.57,6.9,4.57h35.37Z"/>
    </clipPath>
    <linearGradient id="e" data-name="Gradiente sem nome 27" x1="-49.19" y1="91.05" x2="484.53" y2="91.05" gradientUnits="userSpaceOnUse">
      <stop offset="0" stop-color="#32ea94"/>
      <stop offset=".36" stop-color="#6b65f2"/>
      <stop offset=".71" stop-color="#a71de0"/>
      <stop offset="1" stop-color="#ea3259"/>
    </linearGradient>
    <clipPath id="f">
      <path class="p" d="m39.81,56.42H10.77c-.74,0-1.35.6-1.35,1.35v93.17c0,1.14,1.32,1.76,2.2,1.04,8.88-7.26,21.79-17.81,29.05-23.75.31-.26.49-.64.49-1.04V57.76c0-.74-.6-1.35-1.35-1.35Zm71.68,76.2h-63.82c-.31,0-.6.1-.84.3l-29.48,23.68c-.99.8-.43,2.4.84,2.4h79.68c1.37,0,2.66-.63,3.51-1.71l13.62-17.48c2.28-2.92.2-7.18-3.51-7.18Z"/>
    </clipPath>
    <linearGradient id="g" data-name="Gradiente sem nome 31" x1="-36.81" y1="103.66" x2="127.31" y2="103.66" gradientUnits="userSpaceOnUse">
      <stop offset="0" stop-color="#32ea94"/>
      <stop offset="1" stop-color="#6b65f2"/>
    </linearGradient>
    <linearGradient id="h" data-name="Gradiente sem nome 32" x1="384.06" y1="71.18" x2="490.58" y2="71.18" gradientUnits="userSpaceOnUse">
      <stop offset="0" stop-color="#ea3259"/>
      <stop offset=".24" stop-color="#dc2d74"/>
      <stop offset=".75" stop-color="#b922bb"/>
      <stop offset="1" stop-color="#a71de0"/>
    </linearGradient>
    <clipPath id="i">
      <path class="m" d="m460.19,122.47h29.04c.74,0,1.35-.6,1.35-1.35V27.96c0-1.14-1.32-1.76-2.2-1.04-8.88,7.26-21.79,17.81-29.05,23.75-.31.26-.49.64-.49,1.04v69.42c0,.74.6,1.35,1.35,1.35Zm-71.68-76.2h63.82c.31,0,.6-.1.84-.3l29.48-23.68c.99-.8.43-2.4-.84-2.4h-79.68c-1.37,0-2.66.63-3.51,1.71l-13.62,17.48c-2.28,2.92-.2,7.18,3.51,7.18Z"/>
    </clipPath>
    <linearGradient id="j" data-name="Gradiente sem nome 32" x1="-4114.63" y1="-996.28" x2="-3950.51" y2="-996.28" gradientTransform="translate(4487.31 1071.51)" xlink:href="#h"/>
  </defs>
  <g class="r">
    <rect class="n" x="-49.19" y="33.46" width="533.72" height="115.17"/>
  </g>
  <g class="t">
    <rect class="o" x="-36.81" y="21.6" width="164.12" height="164.12"/>
  </g>
  <g>
    <path class="l" d="m460.19,122.47h29.04c.74,0,1.35-.6,1.35-1.35V27.96c0-1.14-1.32-1.76-2.2-1.04-8.88,7.26-21.79,17.81-29.05,23.75-.31.26-.49.64-.49,1.04v69.42c0,.74.6,1.35,1.35,1.35Zm-71.68-76.2h63.82c.31,0,.6-.1.84-.3l29.48-23.68c.99-.8.43-2.4-.84-2.4h-79.68c-1.37,0-2.66.63-3.51,1.71l-13.62,17.48c-2.28,2.92-.2,7.18,3.51,7.18Z"/>
    <g class="s">
      <rect class="q" x="372.69" y="-6.83" width="164.12" height="164.12" transform="translate(909.49 150.46) rotate(180)"/>
    </g>
  </g>
</svg>