<svg width="201" height="310" viewBox="0 0 201 310" fill="none" xmlns="http://www.w3.org/2000/svg">
<ellipse cx="105" cy="190" rx="84" ry="86" fill="#6B65F2"/>
<ellipse cx="92" cy="185.5" rx="84" ry="81.5" fill="#1E1E1E"/>
<mask id="path-3-outside-1_6_13" maskUnits="userSpaceOnUse" x="-7" y="99" width="215" height="158" fill="black">
<rect fill="white" x="-7" y="99" width="215" height="158"/>
<path d="M141.174 249.216C132.894 249.216 124.614 248.043 116.334 245.697C108.054 243.489 99.843 240.66 91.701 237.21C83.559 233.898 75.555 230.655 67.689 227.481C61.755 230.517 55.338 233.208 48.438 235.554C41.538 238.038 34.362 239.418 26.91 239.694C17.802 239.694 11.109 238.038 6.831 234.726C2.553 231.414 0.414 227.481 0.414 222.927C0.414 218.373 2.553 214.164 6.831 210.3C11.109 206.436 17.043 204.504 24.633 204.504C31.257 204.504 38.157 206.022 45.333 209.058C52.509 212.094 59.961 215.613 67.689 219.615C72.933 215.199 78.108 210.231 83.214 204.711C88.458 199.053 93.633 193.05 98.739 186.702C95.013 186.426 91.011 185.736 86.733 184.632C82.593 183.39 78.66 181.803 74.934 179.871C71.208 177.801 68.103 175.317 65.619 172.419C63.273 169.383 62.1 165.864 62.1 161.862C62.1 157.308 63.411 153.444 66.033 150.27C68.655 146.958 72.036 144.267 76.176 142.197C80.454 140.127 85.008 138.609 89.838 137.643C94.806 136.539 99.567 135.987 104.121 135.987C109.503 135.987 114.609 136.47 119.439 137.436C124.269 138.264 128.685 139.437 132.687 140.955C137.655 134.883 142.899 129.294 148.419 124.188C153.939 118.944 159.666 114.735 165.6 111.561C171.672 108.387 177.951 106.8 184.437 106.8C189.819 106.8 193.752 108.249 196.236 111.147C198.858 113.907 200.169 117.495 200.169 121.911C200.169 127.431 198.237 133.641 194.373 140.541C190.647 147.441 185.058 154.203 177.606 160.827C170.154 167.451 160.977 173.109 150.075 177.801C139.311 182.493 126.96 185.391 113.022 186.495C107.502 193.671 101.568 200.433 95.22 206.781C89.01 213.129 82.11 218.649 74.52 223.341C81.282 226.791 88.113 230.172 95.013 233.484C102.051 236.934 109.227 239.694 116.541 241.764C123.993 243.972 131.583 245.076 139.311 245.076C143.727 245.076 148.143 244.455 152.559 243.213C156.975 242.109 160.701 240.039 163.737 237.003C166.773 234.105 168.291 230.103 168.291 224.997C168.291 220.167 166.428 216.717 162.702 214.647C159.114 212.577 154.698 211.542 149.454 211.542C145.866 211.542 141.933 212.163 137.655 213.405C133.515 214.509 129.927 216.165 126.891 218.373C126.339 218.787 125.856 218.994 125.442 218.994C125.028 218.994 124.821 218.856 124.821 218.58C124.821 217.2 126.339 215.751 129.375 214.233C132.411 212.577 135.999 211.197 140.139 210.093C144.417 208.851 148.143 208.23 151.317 208.23C154.353 208.23 157.872 208.782 161.874 209.886C165.876 210.852 169.395 212.577 172.431 215.061C175.467 217.545 176.985 220.995 176.985 225.411C176.985 230.931 175.122 235.416 171.396 238.866C167.67 242.454 163.047 245.076 157.527 246.732C152.145 248.388 146.694 249.216 141.174 249.216ZM115.92 182.769C128.34 181.389 139.38 178.284 149.04 173.454C158.838 168.624 167.187 163.035 174.087 156.687C180.987 150.201 186.231 143.715 189.819 137.229C193.407 130.743 195.201 125.154 195.201 120.462C195.201 117.288 194.304 114.735 192.51 112.803C190.854 110.871 188.232 109.905 184.644 109.905C181.194 109.905 177.606 110.94 173.88 113.01C170.154 114.942 166.497 117.426 162.909 120.462C159.459 123.498 156.285 126.603 153.387 129.777C150.627 132.813 148.488 135.435 146.97 137.643L141.381 145.509C145.383 148.269 148.764 151.443 151.524 155.031C152.076 155.721 152.352 156.687 152.352 157.929C152.352 158.757 152.214 159.171 151.938 159.171C151.8 159.171 151.593 158.964 151.317 158.55C148.143 154.548 144.21 151.098 139.518 148.2C135.792 153.72 131.997 159.447 128.133 165.381C124.269 171.177 120.198 176.973 115.92 182.769ZM101.223 183.39C105.225 178.56 109.641 172.557 114.471 165.381C119.301 158.205 124.614 151.029 130.41 143.853C122.13 140.679 113.022 139.092 103.086 139.092C100.05 139.092 96.6 139.644 92.736 140.748C89.01 141.714 85.422 143.232 81.972 145.302C78.66 147.234 75.9 149.649 73.692 152.547C71.484 155.445 70.38 158.826 70.38 162.69C70.38 167.106 72.036 170.832 75.348 173.868C78.66 176.904 82.731 179.181 87.561 180.699C92.391 182.217 96.945 183.114 101.223 183.39ZM26.91 236.382C33.12 236.382 39.054 235.278 44.712 233.07C50.37 231 55.821 228.171 61.065 224.583C53.889 221.685 46.92 219.27 40.158 217.338C33.534 215.268 27.186 214.233 21.114 214.233C15.456 214.233 11.385 215.061 8.901 216.717C6.417 218.373 5.175 220.374 5.175 222.72C5.175 225.756 7.176 228.792 11.178 231.828C15.18 234.864 20.424 236.382 26.91 236.382Z"/>
</mask>
<path d="M141.174 249.216C132.894 249.216 124.614 248.043 116.334 245.697C108.054 243.489 99.843 240.66 91.701 237.21C83.559 233.898 75.555 230.655 67.689 227.481C61.755 230.517 55.338 233.208 48.438 235.554C41.538 238.038 34.362 239.418 26.91 239.694C17.802 239.694 11.109 238.038 6.831 234.726C2.553 231.414 0.414 227.481 0.414 222.927C0.414 218.373 2.553 214.164 6.831 210.3C11.109 206.436 17.043 204.504 24.633 204.504C31.257 204.504 38.157 206.022 45.333 209.058C52.509 212.094 59.961 215.613 67.689 219.615C72.933 215.199 78.108 210.231 83.214 204.711C88.458 199.053 93.633 193.05 98.739 186.702C95.013 186.426 91.011 185.736 86.733 184.632C82.593 183.39 78.66 181.803 74.934 179.871C71.208 177.801 68.103 175.317 65.619 172.419C63.273 169.383 62.1 165.864 62.1 161.862C62.1 157.308 63.411 153.444 66.033 150.27C68.655 146.958 72.036 144.267 76.176 142.197C80.454 140.127 85.008 138.609 89.838 137.643C94.806 136.539 99.567 135.987 104.121 135.987C109.503 135.987 114.609 136.47 119.439 137.436C124.269 138.264 128.685 139.437 132.687 140.955C137.655 134.883 142.899 129.294 148.419 124.188C153.939 118.944 159.666 114.735 165.6 111.561C171.672 108.387 177.951 106.8 184.437 106.8C189.819 106.8 193.752 108.249 196.236 111.147C198.858 113.907 200.169 117.495 200.169 121.911C200.169 127.431 198.237 133.641 194.373 140.541C190.647 147.441 185.058 154.203 177.606 160.827C170.154 167.451 160.977 173.109 150.075 177.801C139.311 182.493 126.96 185.391 113.022 186.495C107.502 193.671 101.568 200.433 95.22 206.781C89.01 213.129 82.11 218.649 74.52 223.341C81.282 226.791 88.113 230.172 95.013 233.484C102.051 236.934 109.227 239.694 116.541 241.764C123.993 243.972 131.583 245.076 139.311 245.076C143.727 245.076 148.143 244.455 152.559 243.213C156.975 242.109 160.701 240.039 163.737 237.003C166.773 234.105 168.291 230.103 168.291 224.997C168.291 220.167 166.428 216.717 162.702 214.647C159.114 212.577 154.698 211.542 149.454 211.542C145.866 211.542 141.933 212.163 137.655 213.405C133.515 214.509 129.927 216.165 126.891 218.373C126.339 218.787 125.856 218.994 125.442 218.994C125.028 218.994 124.821 218.856 124.821 218.58C124.821 217.2 126.339 215.751 129.375 214.233C132.411 212.577 135.999 211.197 140.139 210.093C144.417 208.851 148.143 208.23 151.317 208.23C154.353 208.23 157.872 208.782 161.874 209.886C165.876 210.852 169.395 212.577 172.431 215.061C175.467 217.545 176.985 220.995 176.985 225.411C176.985 230.931 175.122 235.416 171.396 238.866C167.67 242.454 163.047 245.076 157.527 246.732C152.145 248.388 146.694 249.216 141.174 249.216ZM115.92 182.769C128.34 181.389 139.38 178.284 149.04 173.454C158.838 168.624 167.187 163.035 174.087 156.687C180.987 150.201 186.231 143.715 189.819 137.229C193.407 130.743 195.201 125.154 195.201 120.462C195.201 117.288 194.304 114.735 192.51 112.803C190.854 110.871 188.232 109.905 184.644 109.905C181.194 109.905 177.606 110.94 173.88 113.01C170.154 114.942 166.497 117.426 162.909 120.462C159.459 123.498 156.285 126.603 153.387 129.777C150.627 132.813 148.488 135.435 146.97 137.643L141.381 145.509C145.383 148.269 148.764 151.443 151.524 155.031C152.076 155.721 152.352 156.687 152.352 157.929C152.352 158.757 152.214 159.171 151.938 159.171C151.8 159.171 151.593 158.964 151.317 158.55C148.143 154.548 144.21 151.098 139.518 148.2C135.792 153.72 131.997 159.447 128.133 165.381C124.269 171.177 120.198 176.973 115.92 182.769ZM101.223 183.39C105.225 178.56 109.641 172.557 114.471 165.381C119.301 158.205 124.614 151.029 130.41 143.853C122.13 140.679 113.022 139.092 103.086 139.092C100.05 139.092 96.6 139.644 92.736 140.748C89.01 141.714 85.422 143.232 81.972 145.302C78.66 147.234 75.9 149.649 73.692 152.547C71.484 155.445 70.38 158.826 70.38 162.69C70.38 167.106 72.036 170.832 75.348 173.868C78.66 176.904 82.731 179.181 87.561 180.699C92.391 182.217 96.945 183.114 101.223 183.39ZM26.91 236.382C33.12 236.382 39.054 235.278 44.712 233.07C50.37 231 55.821 228.171 61.065 224.583C53.889 221.685 46.92 219.27 40.158 217.338C33.534 215.268 27.186 214.233 21.114 214.233C15.456 214.233 11.385 215.061 8.901 216.717C6.417 218.373 5.175 220.374 5.175 222.72C5.175 225.756 7.176 228.792 11.178 231.828C15.18 234.864 20.424 236.382 26.91 236.382Z" fill="#EA3259"/>
<path d="M116.334 245.697L118.242 238.962L118.19 238.947L118.138 238.933L116.334 245.697ZM91.701 237.21L94.432 230.765L94.3855 230.745L94.3386 230.726L91.701 237.21ZM67.689 227.481L70.3084 220.99L67.3452 219.794L64.5007 221.249L67.689 227.481ZM48.438 235.554L46.1847 228.927L46.1256 228.947L46.067 228.968L48.438 235.554ZM26.91 239.694V246.694H27.0396L27.1691 246.689L26.91 239.694ZM6.831 234.726L2.54579 240.261L2.54579 240.261L6.831 234.726ZM6.831 210.3L11.523 215.495L11.523 215.495L6.831 210.3ZM45.333 209.058L42.6055 215.505L42.6055 215.505L45.333 209.058ZM67.689 219.615L64.47 225.831L68.6217 227.981L72.198 224.969L67.689 219.615ZM83.214 204.711L78.08 199.953L78.0753 199.958L83.214 204.711ZM98.739 186.702L104.194 191.089L112.546 180.706L99.2561 179.721L98.739 186.702ZM86.733 184.632L84.7216 191.337L84.852 191.376L84.9839 191.41L86.733 184.632ZM74.934 179.871L71.5345 185.99L71.6225 186.039L71.7118 186.085L74.934 179.871ZM65.619 172.419L60.08 176.699L60.1886 176.84L60.3042 176.975L65.619 172.419ZM66.033 150.27L71.4297 154.728L71.4761 154.672L71.5213 154.615L66.033 150.27ZM76.176 142.197L73.1271 135.896L73.0862 135.916L73.0455 135.936L76.176 142.197ZM89.838 137.643L91.2108 144.507L91.2838 144.492L91.3565 144.476L89.838 137.643ZM119.439 137.436L118.066 144.3L118.161 144.319L118.256 144.335L119.439 137.436ZM132.687 140.955L130.204 147.5L134.915 149.287L138.105 145.388L132.687 140.955ZM148.419 124.188L153.172 129.327L153.206 129.295L153.24 129.263L148.419 124.188ZM165.6 111.561L162.357 105.357L162.328 105.373L162.298 105.389L165.6 111.561ZM196.236 111.147L190.921 115.703L191.038 115.838L191.161 115.968L196.236 111.147ZM194.373 140.541L188.265 137.121L188.239 137.168L188.214 137.215L194.373 140.541ZM150.075 177.801L147.308 171.371L147.293 171.378L147.278 171.384L150.075 177.801ZM113.022 186.495L112.469 179.517L109.37 179.762L107.474 182.227L113.022 186.495ZM95.22 206.781L90.2703 201.831L90.2431 201.858L90.2162 201.886L95.22 206.781ZM74.52 223.341L70.8392 217.387L60.2625 223.925L71.3387 229.576L74.52 223.341ZM95.013 233.484L98.0941 227.199L98.0682 227.186L98.0421 227.173L95.013 233.484ZM116.541 241.764L118.53 235.052L118.489 235.04L118.447 235.029L116.541 241.764ZM152.559 243.213L150.861 236.422L150.762 236.447L150.664 236.474L152.559 243.213ZM163.737 237.003L158.904 231.94L158.845 231.996L158.787 232.053L163.737 237.003ZM162.702 214.647L159.204 220.71L159.253 220.739L159.303 220.766L162.702 214.647ZM137.655 213.405L139.459 220.169L139.533 220.149L139.607 220.127L137.655 213.405ZM126.891 218.373L122.774 212.712L122.732 212.742L122.691 212.773L126.891 218.373ZM129.375 214.233L132.506 220.494L132.617 220.438L132.727 220.378L129.375 214.233ZM140.139 210.093L141.943 216.857L142.017 216.837L142.091 216.815L140.139 210.093ZM161.874 209.886L160.013 216.634L160.122 216.664L160.232 216.691L161.874 209.886ZM172.431 215.061L176.864 209.643L176.864 209.643L172.431 215.061ZM171.396 238.866L166.64 233.73L166.59 233.776L166.541 233.824L171.396 238.866ZM157.527 246.732L155.516 240.027L155.492 240.034L155.468 240.042L157.527 246.732ZM115.92 182.769L110.288 178.612L100.78 191.494L116.693 189.726L115.92 182.769ZM149.04 173.454L145.945 167.175L145.927 167.184L145.91 167.193L149.04 173.454ZM174.087 156.687L178.826 161.839L178.854 161.813L178.881 161.787L174.087 156.687ZM189.819 137.229L195.944 140.617L195.944 140.617L189.819 137.229ZM192.51 112.803L187.195 117.359L187.286 117.464L187.38 117.566L192.51 112.803ZM173.88 113.01L177.102 119.224L177.192 119.178L177.28 119.129L173.88 113.01ZM162.909 120.462L158.387 115.118L158.336 115.162L158.285 115.207L162.909 120.462ZM153.387 129.777L148.218 125.057L148.213 125.063L148.207 125.068L153.387 129.777ZM146.97 137.643L152.676 141.697L152.708 141.653L152.738 141.609L146.97 137.643ZM141.381 145.509L135.675 141.455L131.563 147.241L137.407 151.271L141.381 145.509ZM151.524 155.031L145.976 159.299L146.016 159.352L146.058 159.404L151.524 155.031ZM151.317 158.55L157.141 154.667L156.981 154.427L156.801 154.2L151.317 158.55ZM139.518 148.2L143.196 142.244L137.477 138.712L133.716 144.284L139.518 148.2ZM128.133 165.381L133.957 169.264L133.978 169.232L133.999 169.201L128.133 165.381ZM101.223 183.39L100.772 190.375L104.335 190.605L106.613 187.856L101.223 183.39ZM114.471 165.381L120.278 169.29L120.278 169.29L114.471 165.381ZM130.41 143.853L135.856 148.251L141.904 140.762L132.916 137.317L130.41 143.853ZM92.736 140.748L94.4927 147.524L94.5762 147.502L94.6591 147.479L92.736 140.748ZM81.972 145.302L85.4991 151.348L85.5364 151.327L85.5735 151.304L81.972 145.302ZM75.348 173.868L80.0781 168.708L80.0781 168.708L75.348 173.868ZM87.561 180.699L89.6598 174.021L89.6598 174.021L87.561 180.699ZM44.712 233.07L42.3069 226.496L42.2368 226.522L42.1672 226.549L44.712 233.07ZM61.065 224.583L65.0178 230.36L75.7986 222.984L63.6862 218.092L61.065 224.583ZM40.158 217.338L38.0701 224.019L38.1522 224.045L38.235 224.069L40.158 217.338ZM8.901 216.717L5.0181 210.893L5.0181 210.893L8.901 216.717ZM11.178 231.828L6.94729 237.405L6.9473 237.405L11.178 231.828ZM141.174 242.216C133.564 242.216 125.926 241.139 118.242 238.962L114.426 252.432C123.302 254.947 132.224 256.216 141.174 256.216V242.216ZM118.138 238.933C110.184 236.812 102.282 234.091 94.432 230.765L88.97 243.655C97.4037 247.229 105.924 250.166 114.53 252.461L118.138 238.933ZM94.3386 230.726C86.1907 227.412 78.1807 224.166 70.3084 220.99L65.0696 233.972C72.9293 237.144 80.9273 240.384 89.0634 243.694L94.3386 230.726ZM64.5007 221.249C58.8948 224.117 52.7932 226.68 46.1847 228.927L50.6913 242.181C57.8828 239.736 64.6152 236.917 70.8773 233.713L64.5007 221.249ZM46.067 228.968C39.8572 231.203 33.3944 232.449 26.6509 232.699L27.1691 246.689C35.3296 246.387 43.2188 244.873 50.809 242.14L46.067 228.968ZM26.91 232.694C18.3889 232.694 13.577 231.096 11.1162 229.191L2.54579 240.261C8.64096 244.98 17.2151 246.694 26.91 246.694V232.694ZM11.1162 229.191C8.18963 226.925 7.414 224.896 7.414 222.927H-6.586C-6.586 230.066 -3.08363 235.903 2.54579 240.261L11.1162 229.191ZM7.414 222.927C7.414 220.854 8.29672 218.409 11.523 215.495L2.139 205.105C-3.19072 209.919 -6.586 215.892 -6.586 222.927H7.414ZM11.523 215.495C14.1514 213.121 18.2156 211.504 24.633 211.504V197.504C15.8705 197.504 8.06661 199.751 2.139 205.105L11.523 215.495ZM24.633 211.504C30.1699 211.504 36.1426 212.77 42.6055 215.505L48.0605 202.611C40.1714 199.274 32.3442 197.504 24.633 197.504V211.504ZM42.6055 215.505C49.5968 218.463 56.8845 221.903 64.47 225.831L70.908 213.399C63.0375 209.323 55.4212 205.725 48.0605 202.611L42.6055 215.505ZM72.198 224.969C77.6842 220.349 83.0681 215.177 88.3527 209.464L78.0753 199.958C73.1479 205.285 68.1818 210.049 63.1801 214.261L72.198 224.969ZM88.348 209.469C93.7091 203.685 98.9907 197.558 104.194 191.089L93.2845 182.315C88.2753 188.542 83.2069 194.421 78.08 199.953L88.348 209.469ZM99.2561 179.721C96.0131 179.481 92.4271 178.872 88.4822 177.854L84.9839 191.41C89.5949 192.6 94.0129 193.371 98.2219 193.683L99.2561 179.721ZM88.7444 177.927C85.01 176.807 81.4834 175.382 78.1562 173.657L71.7118 186.085C75.8366 188.224 80.176 189.973 84.7216 191.337L88.7444 177.927ZM78.3335 173.752C75.2494 172.038 72.8178 170.061 70.9338 167.863L60.3042 176.975C63.3882 180.572 67.1666 183.563 71.5345 185.99L78.3335 173.752ZM71.158 168.139C69.8021 166.384 69.1 164.387 69.1 161.862H55.1C55.1 167.341 56.7439 172.382 60.08 176.699L71.158 168.139ZM69.1 161.862C69.1 158.751 69.9557 156.513 71.4297 154.728L60.6363 145.812C56.8663 150.375 55.1 155.865 55.1 161.862H69.1ZM71.5213 154.615C73.4482 152.181 75.9944 150.114 79.3065 148.458L73.0455 135.936C68.0776 138.42 63.8618 141.735 60.5447 145.925L71.5213 154.615ZM79.2249 148.498C82.9511 146.695 86.9399 145.361 91.2108 144.507L88.4652 130.779C83.0761 131.857 77.9569 133.559 73.1271 135.896L79.2249 148.498ZM91.3565 144.476C95.8833 143.47 100.133 142.987 104.121 142.987V128.987C99.0007 128.987 93.7287 129.608 88.3195 130.81L91.3565 144.476ZM104.121 142.987C109.084 142.987 113.728 143.432 118.066 144.3L120.812 130.572C115.49 129.508 109.922 128.987 104.121 128.987V142.987ZM118.256 144.335C122.705 145.098 126.679 146.163 130.204 147.5L135.17 134.41C130.691 132.711 125.833 131.43 120.622 130.537L118.256 144.335ZM138.105 145.388C142.877 139.555 147.9 134.204 153.172 129.327L143.666 119.049C137.898 124.384 132.433 130.211 127.269 136.522L138.105 145.388ZM153.24 129.263C158.364 124.396 163.588 120.576 168.902 117.733L162.298 105.389C155.744 108.894 149.514 113.492 143.598 119.113L153.24 129.263ZM168.843 117.765C173.972 115.083 179.144 113.8 184.437 113.8V99.8C176.758 99.8 169.372 101.691 162.357 105.357L168.843 117.765ZM184.437 113.8C188.645 113.8 190.244 114.913 190.921 115.703L201.551 106.591C197.26 101.585 190.993 99.8 184.437 99.8V113.8ZM191.161 115.968C192.35 117.22 193.169 118.981 193.169 121.911H207.169C207.169 116.009 205.366 110.594 201.311 106.326L191.161 115.968ZM193.169 121.911C193.169 125.826 191.782 130.841 188.265 137.121L200.481 143.961C204.692 136.441 207.169 129.036 207.169 121.911H193.169ZM188.214 137.215C184.965 143.231 179.955 149.373 172.955 155.595L182.257 166.059C190.161 159.033 196.329 151.651 200.532 143.867L188.214 137.215ZM172.955 155.595C166.158 161.637 157.649 166.92 147.308 171.371L152.842 184.231C164.305 179.298 174.15 173.265 182.257 166.059L172.955 155.595ZM147.278 171.384C137.347 175.713 125.777 178.463 112.469 179.517L113.575 193.473C128.143 192.319 141.275 189.273 152.872 184.218L147.278 171.384ZM107.474 182.227C102.137 189.165 96.4024 195.699 90.2703 201.831L100.17 211.731C106.734 205.167 112.867 198.177 118.57 190.763L107.474 182.227ZM90.2162 201.886C84.4046 207.827 77.9493 212.992 70.8392 217.387L78.2008 229.295C86.2707 224.306 93.6154 218.431 100.224 211.676L90.2162 201.886ZM71.3387 229.576C78.1515 233.052 85.0333 236.458 91.9839 239.795L98.0421 227.173C91.1927 223.886 84.4125 220.53 77.7013 217.106L71.3387 229.576ZM91.9319 239.769C99.3355 243.399 106.904 246.312 114.635 248.499L118.447 235.029C111.55 233.076 104.767 230.469 98.0941 227.199L91.9319 239.769ZM114.552 248.476C122.646 250.874 130.906 252.076 139.311 252.076V238.076C132.26 238.076 125.34 237.07 118.53 235.052L114.552 248.476ZM139.311 252.076C144.392 252.076 149.445 251.36 154.454 249.952L150.664 236.474C146.841 237.55 143.062 238.076 139.311 238.076V252.076ZM154.257 250.004C159.826 248.612 164.699 245.94 168.687 241.953L158.787 232.053C156.703 234.138 154.124 235.606 150.861 236.422L154.257 250.004ZM168.57 242.066C173.282 237.569 175.291 231.571 175.291 224.997H161.291C161.291 228.635 160.264 230.641 158.904 231.94L168.57 242.066ZM175.291 224.997C175.291 218.035 172.386 212.02 166.102 208.528L159.303 220.766C160.47 221.414 161.291 222.299 161.291 224.997H175.291ZM166.2 208.584C161.301 205.757 155.605 204.542 149.454 204.542V218.542C153.791 218.542 156.927 219.397 159.204 220.71L166.2 208.584ZM149.454 204.542C145.069 204.542 140.469 205.299 135.703 206.683L139.607 220.127C143.397 219.027 146.663 218.542 149.454 218.542V204.542ZM135.851 206.641C130.995 207.936 126.598 209.931 122.774 212.712L131.008 224.034C133.256 222.399 136.035 221.082 139.459 220.169L135.851 206.641ZM122.691 212.773C122.731 212.743 122.956 212.577 123.357 212.405C123.761 212.232 124.483 211.994 125.442 211.994V225.994C128.086 225.994 130.062 224.744 131.091 223.973L122.691 212.773ZM125.442 211.994C125.792 211.994 127.278 212.012 128.859 213.066C129.743 213.655 130.561 214.511 131.121 215.631C131.666 216.721 131.821 217.77 131.821 218.58H117.821C117.821 220.757 118.804 223.189 121.093 224.715C122.881 225.907 124.678 225.994 125.442 225.994V211.994ZM131.821 218.58C131.821 219.566 131.541 220.345 131.274 220.842C131.025 221.305 130.793 221.521 130.793 221.522C130.785 221.529 130.896 221.424 131.204 221.224C131.504 221.028 131.928 220.783 132.506 220.494L126.244 207.972C124.437 208.876 122.603 209.985 121.126 211.395C119.697 212.759 117.821 215.175 117.821 218.58H131.821ZM132.727 220.378C135.173 219.044 138.219 217.85 141.943 216.857L138.335 203.329C133.779 204.544 129.649 206.11 126.023 208.088L132.727 220.378ZM142.091 216.815C145.969 215.69 149.01 215.23 151.317 215.23V201.23C147.276 201.23 142.865 202.012 138.187 203.371L142.091 216.815ZM151.317 215.23C153.541 215.23 156.411 215.641 160.013 216.634L163.736 203.138C159.333 201.923 155.165 201.23 151.317 201.23V215.23ZM160.232 216.691C163.263 217.422 165.817 218.694 167.998 220.479L176.864 209.643C172.973 206.46 168.489 204.282 163.516 203.081L160.232 216.691ZM167.998 220.479C169.192 221.455 169.985 222.797 169.985 225.411H183.985C183.985 219.193 181.742 213.635 176.864 209.643L167.998 220.479ZM169.985 225.411C169.985 229.171 168.802 231.728 166.64 233.73L176.152 244.002C181.442 239.104 183.985 232.691 183.985 225.411H169.985ZM166.541 233.824C163.705 236.555 160.092 238.654 155.516 240.027L159.538 253.437C166.002 251.498 171.635 248.353 176.252 243.908L166.541 233.824ZM155.468 240.042C150.74 241.497 145.982 242.216 141.174 242.216V256.216C147.406 256.216 153.55 255.279 159.586 253.422L155.468 240.042ZM116.693 189.726C129.807 188.269 141.666 184.967 152.171 179.715L145.91 167.193C137.094 171.601 126.873 174.509 115.147 175.812L116.693 189.726ZM152.135 179.733C162.436 174.655 171.362 168.706 178.826 161.839L169.348 151.535C163.012 157.364 155.24 162.593 145.945 167.175L152.135 179.733ZM178.881 161.787C186.172 154.934 191.922 147.888 195.944 140.617L183.694 133.841C180.54 139.542 175.802 145.468 169.293 151.587L178.881 161.787ZM195.944 140.617C199.805 133.638 202.201 126.835 202.201 120.462H188.201C188.201 123.473 187.009 127.848 183.694 133.841L195.944 140.617ZM202.201 120.462C202.201 115.902 200.872 111.521 197.64 108.04L187.38 117.566C187.736 117.949 188.201 118.674 188.201 120.462H202.201ZM197.825 108.247C194.362 104.207 189.406 102.905 184.644 102.905V116.905C185.836 116.905 186.53 117.069 186.882 117.198C187.049 117.259 187.132 117.311 187.161 117.331C187.188 117.349 187.193 117.356 187.195 117.359L197.825 108.247ZM184.644 102.905C179.755 102.905 175.004 104.378 170.481 106.891L177.28 119.129C180.208 117.502 182.633 116.905 184.644 116.905V102.905ZM170.658 106.796C166.416 108.995 162.328 111.784 158.387 115.118L167.431 125.806C170.666 123.068 173.892 120.889 177.102 119.224L170.658 106.796ZM158.285 115.207C154.656 118.4 151.299 121.683 148.218 125.057L158.556 134.497C161.271 131.523 164.262 128.596 167.533 125.717L158.285 115.207ZM148.207 125.068C145.334 128.229 142.966 131.11 141.202 133.677L152.738 141.609C154.01 139.76 155.92 137.397 158.567 134.486L148.207 125.068ZM141.264 133.589L135.675 141.455L147.087 149.563L152.676 141.697L141.264 133.589ZM137.407 151.271C140.854 153.649 143.691 156.329 145.976 159.299L157.072 150.763C153.837 146.557 149.912 142.889 145.355 139.747L137.407 151.271ZM146.058 159.404C145.283 158.435 145.352 157.643 145.352 157.929H159.352C159.352 155.731 158.869 153.007 156.99 150.658L146.058 159.404ZM145.352 157.929C145.352 158.139 145.312 157.534 145.608 156.647C145.762 156.184 146.169 155.144 147.169 154.144C148.342 152.971 150.029 152.171 151.938 152.171V166.171C156.726 166.171 158.515 162.196 158.889 161.074C159.323 159.773 159.352 158.547 159.352 157.929H145.352ZM151.938 152.171C153.625 152.171 154.846 152.783 155.423 153.13C156.038 153.499 156.442 153.879 156.629 154.066C156.838 154.275 156.975 154.445 157.037 154.524C157.104 154.611 157.139 154.664 157.141 154.667L145.493 162.433C145.736 162.797 146.152 163.388 146.73 163.965C147.02 164.256 147.519 164.714 148.22 165.135C148.883 165.533 150.182 166.171 151.938 166.171V152.171ZM156.801 154.2C153.084 149.513 148.524 145.535 143.196 142.244L135.84 154.156C139.896 156.661 143.202 159.583 145.833 162.9L156.801 154.2ZM133.716 144.284C129.967 149.838 126.151 155.597 122.267 161.561L133.999 169.201C137.843 163.297 141.617 157.602 145.32 152.116L133.716 144.284ZM122.309 161.498C118.509 167.198 114.502 172.903 110.288 178.612L121.552 186.926C125.894 181.043 130.029 175.156 133.957 169.264L122.309 161.498ZM106.613 187.856C110.807 182.795 115.363 176.592 120.278 169.29L108.664 161.472C103.919 168.522 99.6432 174.325 95.8329 178.924L106.613 187.856ZM120.278 169.29C124.988 162.293 130.179 155.28 135.856 148.251L124.964 139.455C119.049 146.778 113.614 154.117 108.664 161.472L120.278 169.29ZM132.916 137.317C123.745 133.801 113.776 132.092 103.086 132.092V146.092C112.268 146.092 120.515 147.557 127.904 150.389L132.916 137.317ZM103.086 132.092C99.2286 132.092 95.1133 132.789 90.813 134.017L94.6591 147.479C98.0867 146.499 100.871 146.092 103.086 146.092V132.092ZM90.9793 133.972C86.5757 135.114 82.3691 136.9 78.3705 139.3L85.5735 151.304C88.4749 149.564 91.4443 148.314 94.4927 147.524L90.9793 133.972ZM78.4449 139.256C74.3832 141.625 70.9164 144.64 68.124 148.305L79.26 156.789C80.8836 154.658 82.9368 152.843 85.4991 151.348L78.4449 139.256ZM68.124 148.305C64.9287 152.498 63.38 157.392 63.38 162.69H77.38C77.38 160.26 78.0393 158.392 79.26 156.789L68.124 148.305ZM63.38 162.69C63.38 169.107 65.8882 174.693 70.6179 179.028L80.0781 168.708C78.1838 166.971 77.38 165.105 77.38 162.69H63.38ZM70.6179 179.028C74.776 182.84 79.7791 185.591 85.4622 187.377L89.6598 174.021C85.6829 172.771 82.544 170.968 80.0781 168.708L70.6179 179.028ZM85.4622 187.377C90.7338 189.034 95.8446 190.058 100.772 190.375L101.674 176.405C98.0454 176.17 94.0482 175.4 89.6598 174.021L85.4622 187.377ZM26.91 243.382C33.9707 243.382 40.7693 242.123 47.2568 239.591L42.1672 226.549C37.3387 228.433 32.2693 229.382 26.91 229.382V243.382ZM47.1171 239.644C53.3512 237.363 59.3193 234.259 65.0178 230.36L57.1122 218.806C52.3227 222.083 47.3888 224.637 42.3069 226.496L47.1171 239.644ZM63.6862 218.092C56.3043 215.111 49.102 212.613 42.081 210.607L38.235 224.069C44.738 225.927 51.4737 228.259 58.4438 231.074L63.6862 218.092ZM42.2459 210.657C35.0409 208.405 27.987 207.233 21.114 207.233V221.233C26.385 221.233 32.0271 222.131 38.0701 224.019L42.2459 210.657ZM21.114 207.233C15.1232 207.233 9.29162 208.044 5.0181 210.893L12.7839 222.541C13.4784 222.078 15.7888 221.233 21.114 221.233V207.233ZM5.0181 210.893C1.18468 213.448 -1.825 217.396 -1.825 222.72H12.175C12.175 222.759 12.1686 222.843 12.1385 222.948C12.1085 223.053 12.0708 223.124 12.054 223.151C12.0259 223.197 12.1592 222.958 12.7839 222.541L5.0181 210.893ZM-1.825 222.72C-1.825 229.057 2.33368 233.905 6.94729 237.405L15.4087 226.251C13.8162 225.043 12.9531 224.078 12.5205 223.422C12.1225 222.818 12.175 222.618 12.175 222.72H-1.825ZM6.9473 237.405C12.4803 241.602 19.3436 243.382 26.91 243.382V229.382C21.5044 229.382 17.8798 228.126 15.4087 226.251L6.9473 237.405Z" fill="white" mask="url(#path-3-outside-1_6_13)"/>
</svg>
