<svg width="64" height="100" viewBox="0 0 64 100" fill="none" xmlns="http://www.w3.org/2000/svg">
<ellipse cx="31.2903" cy="54.2903" rx="27.0968" ry="27.7419" fill="#6B65F2"/>
<ellipse cx="27.0968" cy="52.8387" rx="27.0968" ry="26.2903" fill="#F0F0F0"/>
<mask id="path-3-outside-1_6_16" maskUnits="userSpaceOnUse" x="0.161285" y="31.7419" width="65" height="48" fill="black">
<rect fill="white" x="0.161285" y="31.7419" width="65" height="48"/>
<path d="M45.1273 77.2859C42.6073 77.2859 40.0873 76.9289 37.5673 76.2149C35.0473 75.5429 32.5483 74.6819 30.0703 73.6319C27.5923 72.6239 25.1563 71.6369 22.7623 70.6709C20.9563 71.5949 19.0033 72.4139 16.9033 73.1279C14.8033 73.8839 12.6193 74.3039 10.3513 74.3879C7.57929 74.3879 5.54229 73.8839 4.24029 72.8759C2.93829 71.8679 2.28729 70.6709 2.28729 69.2849C2.28729 67.8989 2.93829 66.6179 4.24029 65.4419C5.54229 64.2659 7.34829 63.6779 9.65829 63.6779C11.6743 63.6779 13.7743 64.1399 15.9583 65.0639C18.1423 65.9879 20.4103 67.0589 22.7623 68.2769C24.3583 66.9329 25.9333 65.4209 27.4873 63.7409C29.0833 62.0189 30.6583 60.1919 32.2123 58.2599C31.0783 58.1759 29.8603 57.9659 28.5583 57.6299C27.2983 57.2519 26.1013 56.7689 24.9673 56.1809C23.8333 55.5509 22.8883 54.7949 22.1323 53.9129C21.4183 52.9889 21.0613 51.9179 21.0613 50.6999C21.0613 49.3139 21.4603 48.1379 22.2583 47.1719C23.0563 46.1639 24.0853 45.3449 25.3453 44.7149C26.6473 44.0849 28.0333 43.6229 29.5033 43.3289C31.0153 42.9929 32.4643 42.8249 33.8503 42.8249C35.4883 42.8249 37.0423 42.9719 38.5123 43.2659C39.9823 43.5179 41.3263 43.8749 42.5443 44.3369C44.0563 42.4889 45.6523 40.7879 47.3323 39.2339C49.0123 37.6379 50.7553 36.3569 52.5613 35.3909C54.4093 34.4249 56.3203 33.9419 58.2943 33.9419C59.9323 33.9419 61.1293 34.3829 61.8853 35.2649C62.6833 36.1049 63.0823 37.1969 63.0823 38.5409C63.0823 40.2209 62.4943 42.1109 61.3183 44.2109C60.1843 46.3109 58.4833 48.3689 56.2153 50.3849C53.9473 52.4009 51.1543 54.1229 47.8363 55.5509C44.5603 56.9789 40.8013 57.8609 36.5593 58.1969C34.8793 60.3809 33.0733 62.4389 31.1413 64.3709C29.2513 66.3029 27.1513 67.9829 24.8413 69.4109C26.8993 70.4609 28.9783 71.4899 31.0783 72.4979C33.2203 73.5479 35.4043 74.3879 37.6303 75.0179C39.8983 75.6899 42.2083 76.0259 44.5603 76.0259C45.9043 76.0259 47.2483 75.8369 48.5923 75.4589C49.9363 75.1229 51.0703 74.4929 51.9943 73.5689C52.9183 72.6869 53.3803 71.4689 53.3803 69.9149C53.3803 68.4449 52.8133 67.3949 51.6793 66.7649C50.5873 66.1349 49.2433 65.8199 47.6473 65.8199C46.5553 65.8199 45.3583 66.0089 44.0563 66.3869C42.7963 66.7229 41.7043 67.2269 40.7803 67.8989C40.6123 68.0249 40.4653 68.0879 40.3393 68.0879C40.2133 68.0879 40.1503 68.0459 40.1503 67.9619C40.1503 67.5419 40.6123 67.1009 41.5363 66.6389C42.4603 66.1349 43.5523 65.7149 44.8123 65.3789C46.1143 65.0009 47.2483 64.8119 48.2143 64.8119C49.1383 64.8119 50.2093 64.9799 51.4273 65.3159C52.6453 65.6099 53.7163 66.1349 54.6403 66.8909C55.5643 67.6469 56.0263 68.6969 56.0263 70.0409C56.0263 71.7209 55.4593 73.0859 54.3253 74.1359C53.1913 75.2279 51.7843 76.0259 50.1043 76.5299C48.4663 77.0339 46.8073 77.2859 45.1273 77.2859ZM37.4413 57.0629C41.2213 56.6429 44.5813 55.6979 47.5213 54.2279C50.5033 52.7579 53.0443 51.0569 55.1443 49.1249C57.2443 47.1509 58.8403 45.1769 59.9323 43.2029C61.0243 41.2289 61.5703 39.5279 61.5703 38.0999C61.5703 37.1339 61.2973 36.3569 60.7513 35.7689C60.2473 35.1809 59.4493 34.8869 58.3573 34.8869C57.3073 34.8869 56.2153 35.2019 55.0813 35.8319C53.9473 36.4199 52.8343 37.1759 51.7423 38.0999C50.6923 39.0239 49.7263 39.9689 48.8443 40.9349C48.0043 41.8589 47.3533 42.6569 46.8913 43.3289L45.1903 45.7229C46.4083 46.5629 47.4373 47.5289 48.2773 48.6209C48.4453 48.8309 48.5293 49.1249 48.5293 49.5029C48.5293 49.7549 48.4873 49.8809 48.4033 49.8809C48.3613 49.8809 48.2983 49.8179 48.2143 49.6919C47.2483 48.4739 46.0513 47.4239 44.6233 46.5419C43.4893 48.2219 42.3343 49.9649 41.1583 51.7709C39.9823 53.5349 38.7433 55.2989 37.4413 57.0629ZM32.9683 57.2519C34.1863 55.7819 35.5303 53.9549 37.0003 51.7709C38.4703 49.5869 40.0873 47.4029 41.8513 45.2189C39.3313 44.2529 36.5593 43.7699 33.5353 43.7699C32.6113 43.7699 31.5613 43.9379 30.3853 44.2739C29.2513 44.5679 28.1593 45.0299 27.1093 45.6599C26.1013 46.2479 25.2613 46.9829 24.5893 47.8649C23.9173 48.7469 23.5813 49.7759 23.5813 50.9519C23.5813 52.2959 24.0853 53.4299 25.0933 54.3539C26.1013 55.2779 27.3403 55.9709 28.8103 56.4329C30.2803 56.8949 31.6663 57.1679 32.9683 57.2519ZM10.3513 73.3799C12.2413 73.3799 14.0473 73.0439 15.7693 72.3719C17.4913 71.7419 19.1503 70.8809 20.7463 69.7889C18.5623 68.9069 16.4413 68.1719 14.3833 67.5839C12.3673 66.9539 10.4353 66.6389 8.58729 66.6389C6.86529 66.6389 5.62629 66.8909 4.87029 67.3949C4.11429 67.8989 3.73629 68.5079 3.73629 69.2219C3.73629 70.1459 4.34529 71.0699 5.56329 71.9939C6.78129 72.9179 8.37729 73.3799 10.3513 73.3799Z"/>
</mask>
<path d="M45.1273 77.2859C42.6073 77.2859 40.0873 76.9289 37.5673 76.2149C35.0473 75.5429 32.5483 74.6819 30.0703 73.6319C27.5923 72.6239 25.1563 71.6369 22.7623 70.6709C20.9563 71.5949 19.0033 72.4139 16.9033 73.1279C14.8033 73.8839 12.6193 74.3039 10.3513 74.3879C7.57929 74.3879 5.54229 73.8839 4.24029 72.8759C2.93829 71.8679 2.28729 70.6709 2.28729 69.2849C2.28729 67.8989 2.93829 66.6179 4.24029 65.4419C5.54229 64.2659 7.34829 63.6779 9.65829 63.6779C11.6743 63.6779 13.7743 64.1399 15.9583 65.0639C18.1423 65.9879 20.4103 67.0589 22.7623 68.2769C24.3583 66.9329 25.9333 65.4209 27.4873 63.7409C29.0833 62.0189 30.6583 60.1919 32.2123 58.2599C31.0783 58.1759 29.8603 57.9659 28.5583 57.6299C27.2983 57.2519 26.1013 56.7689 24.9673 56.1809C23.8333 55.5509 22.8883 54.7949 22.1323 53.9129C21.4183 52.9889 21.0613 51.9179 21.0613 50.6999C21.0613 49.3139 21.4603 48.1379 22.2583 47.1719C23.0563 46.1639 24.0853 45.3449 25.3453 44.7149C26.6473 44.0849 28.0333 43.6229 29.5033 43.3289C31.0153 42.9929 32.4643 42.8249 33.8503 42.8249C35.4883 42.8249 37.0423 42.9719 38.5123 43.2659C39.9823 43.5179 41.3263 43.8749 42.5443 44.3369C44.0563 42.4889 45.6523 40.7879 47.3323 39.2339C49.0123 37.6379 50.7553 36.3569 52.5613 35.3909C54.4093 34.4249 56.3203 33.9419 58.2943 33.9419C59.9323 33.9419 61.1293 34.3829 61.8853 35.2649C62.6833 36.1049 63.0823 37.1969 63.0823 38.5409C63.0823 40.2209 62.4943 42.1109 61.3183 44.2109C60.1843 46.3109 58.4833 48.3689 56.2153 50.3849C53.9473 52.4009 51.1543 54.1229 47.8363 55.5509C44.5603 56.9789 40.8013 57.8609 36.5593 58.1969C34.8793 60.3809 33.0733 62.4389 31.1413 64.3709C29.2513 66.3029 27.1513 67.9829 24.8413 69.4109C26.8993 70.4609 28.9783 71.4899 31.0783 72.4979C33.2203 73.5479 35.4043 74.3879 37.6303 75.0179C39.8983 75.6899 42.2083 76.0259 44.5603 76.0259C45.9043 76.0259 47.2483 75.8369 48.5923 75.4589C49.9363 75.1229 51.0703 74.4929 51.9943 73.5689C52.9183 72.6869 53.3803 71.4689 53.3803 69.9149C53.3803 68.4449 52.8133 67.3949 51.6793 66.7649C50.5873 66.1349 49.2433 65.8199 47.6473 65.8199C46.5553 65.8199 45.3583 66.0089 44.0563 66.3869C42.7963 66.7229 41.7043 67.2269 40.7803 67.8989C40.6123 68.0249 40.4653 68.0879 40.3393 68.0879C40.2133 68.0879 40.1503 68.0459 40.1503 67.9619C40.1503 67.5419 40.6123 67.1009 41.5363 66.6389C42.4603 66.1349 43.5523 65.7149 44.8123 65.3789C46.1143 65.0009 47.2483 64.8119 48.2143 64.8119C49.1383 64.8119 50.2093 64.9799 51.4273 65.3159C52.6453 65.6099 53.7163 66.1349 54.6403 66.8909C55.5643 67.6469 56.0263 68.6969 56.0263 70.0409C56.0263 71.7209 55.4593 73.0859 54.3253 74.1359C53.1913 75.2279 51.7843 76.0259 50.1043 76.5299C48.4663 77.0339 46.8073 77.2859 45.1273 77.2859ZM37.4413 57.0629C41.2213 56.6429 44.5813 55.6979 47.5213 54.2279C50.5033 52.7579 53.0443 51.0569 55.1443 49.1249C57.2443 47.1509 58.8403 45.1769 59.9323 43.2029C61.0243 41.2289 61.5703 39.5279 61.5703 38.0999C61.5703 37.1339 61.2973 36.3569 60.7513 35.7689C60.2473 35.1809 59.4493 34.8869 58.3573 34.8869C57.3073 34.8869 56.2153 35.2019 55.0813 35.8319C53.9473 36.4199 52.8343 37.1759 51.7423 38.0999C50.6923 39.0239 49.7263 39.9689 48.8443 40.9349C48.0043 41.8589 47.3533 42.6569 46.8913 43.3289L45.1903 45.7229C46.4083 46.5629 47.4373 47.5289 48.2773 48.6209C48.4453 48.8309 48.5293 49.1249 48.5293 49.5029C48.5293 49.7549 48.4873 49.8809 48.4033 49.8809C48.3613 49.8809 48.2983 49.8179 48.2143 49.6919C47.2483 48.4739 46.0513 47.4239 44.6233 46.5419C43.4893 48.2219 42.3343 49.9649 41.1583 51.7709C39.9823 53.5349 38.7433 55.2989 37.4413 57.0629ZM32.9683 57.2519C34.1863 55.7819 35.5303 53.9549 37.0003 51.7709C38.4703 49.5869 40.0873 47.4029 41.8513 45.2189C39.3313 44.2529 36.5593 43.7699 33.5353 43.7699C32.6113 43.7699 31.5613 43.9379 30.3853 44.2739C29.2513 44.5679 28.1593 45.0299 27.1093 45.6599C26.1013 46.2479 25.2613 46.9829 24.5893 47.8649C23.9173 48.7469 23.5813 49.7759 23.5813 50.9519C23.5813 52.2959 24.0853 53.4299 25.0933 54.3539C26.1013 55.2779 27.3403 55.9709 28.8103 56.4329C30.2803 56.8949 31.6663 57.1679 32.9683 57.2519ZM10.3513 73.3799C12.2413 73.3799 14.0473 73.0439 15.7693 72.3719C17.4913 71.7419 19.1503 70.8809 20.7463 69.7889C18.5623 68.9069 16.4413 68.1719 14.3833 67.5839C12.3673 66.9539 10.4353 66.6389 8.58729 66.6389C6.86529 66.6389 5.62629 66.8909 4.87029 67.3949C4.11429 67.8989 3.73629 68.5079 3.73629 69.2219C3.73629 70.1459 4.34529 71.0699 5.56329 71.9939C6.78129 72.9179 8.37729 73.3799 10.3513 73.3799Z" fill="#EA3259"/>
<path d="M37.5673 76.2149L38.1125 74.2907L38.0976 74.2865L38.0826 74.2825L37.5673 76.2149ZM30.0703 73.6319L30.8506 71.7904L30.8373 71.7848L30.8239 71.7794L30.0703 73.6319ZM22.7623 70.6709L23.5107 68.8162L22.6641 68.4746L21.8513 68.8904L22.7623 70.6709ZM16.9033 73.1279L16.2595 71.2344L16.2426 71.2401L16.2258 71.2462L16.9033 73.1279ZM10.3513 74.3879V76.3879H10.3883L10.4253 76.3866L10.3513 74.3879ZM4.24029 72.8759L3.01594 74.4574L3.01594 74.4574L4.24029 72.8759ZM4.24029 65.4419L5.58086 66.9261L5.58086 66.9261L4.24029 65.4419ZM15.9583 65.0639L15.179 66.9059L15.179 66.9059L15.9583 65.0639ZM22.7623 68.2769L21.8426 70.0529L23.0288 70.6672L24.0506 69.8068L22.7623 68.2769ZM27.4873 63.7409L26.0204 62.3814L26.0191 62.3829L27.4873 63.7409ZM32.2123 58.2599L33.7707 59.5135L36.157 56.5467L32.36 56.2654L32.2123 58.2599ZM28.5583 57.6299L27.9836 59.5456L28.0209 59.5568L28.0585 59.5665L28.5583 57.6299ZM24.9673 56.1809L23.996 57.9293L24.0211 57.9432L24.0467 57.9565L24.9673 56.1809ZM22.1323 53.9129L20.5497 55.1358L20.5807 55.176L20.6138 55.2145L22.1323 53.9129ZM22.2583 47.1719L23.8002 48.4457L23.8135 48.4297L23.8264 48.4133L22.2583 47.1719ZM25.3453 44.7149L24.4742 42.9146L24.4625 42.9203L24.4509 42.9261L25.3453 44.7149ZM29.5033 43.3289L29.8955 45.2901L29.9164 45.2859L29.9371 45.2813L29.5033 43.3289ZM38.5123 43.2659L38.1201 45.2271L38.1471 45.2325L38.1744 45.2372L38.5123 43.2659ZM42.5443 44.3369L41.835 46.2069L43.1808 46.7174L44.0922 45.6034L42.5443 44.3369ZM47.3323 39.2339L48.6904 40.7021L48.7001 40.6931L48.7098 40.6839L47.3323 39.2339ZM52.5613 35.3909L51.6348 33.6185L51.6264 33.6229L51.618 33.6274L52.5613 35.3909ZM61.8853 35.2649L60.3668 36.5665L60.4001 36.6054L60.4353 36.6424L61.8853 35.2649ZM61.3183 44.2109L59.5733 43.2337L59.5658 43.2471L59.5585 43.2606L61.3183 44.2109ZM47.8363 55.5509L47.0456 53.7138L47.0371 53.7176L47.8363 55.5509ZM36.5593 58.1969L36.4014 56.2032L35.5157 56.2733L34.974 56.9775L36.5593 58.1969ZM31.1413 64.3709L29.7271 62.9567L29.7193 62.9645L29.7116 62.9724L31.1413 64.3709ZM24.8413 69.4109L23.7896 67.7098L20.7677 69.5779L23.9323 71.1925L24.8413 69.4109ZM31.0783 72.4979L31.9586 70.7021L31.9512 70.6985L31.9437 70.6949L31.0783 72.4979ZM37.6303 75.0179L38.1985 73.1003L38.1867 73.0969L38.1749 73.0935L37.6303 75.0179ZM48.5923 75.4589L48.1072 73.5187L48.0789 73.5257L48.0508 73.5336L48.5923 75.4589ZM51.9943 73.5689L50.6133 72.1222L50.5965 72.1383L50.5801 72.1547L51.9943 73.5689ZM51.6793 66.7649L50.6798 68.4973L50.6939 68.5054L50.708 68.5133L51.6793 66.7649ZM44.0563 66.3869L44.5716 68.3194L44.5928 68.3138L44.6139 68.3076L44.0563 66.3869ZM40.7803 67.8989L39.6039 66.2815L39.5921 66.2901L39.5803 66.2989L40.7803 67.8989ZM41.5363 66.6389L42.4307 68.4278L42.4626 68.4118L42.494 68.3947L41.5363 66.6389ZM44.8123 65.3789L45.3276 67.3114L45.3488 67.3058L45.3699 67.2996L44.8123 65.3789ZM51.4273 65.3159L50.8954 67.2439L50.9266 67.2525L50.958 67.2601L51.4273 65.3159ZM54.6403 66.8909L55.9068 65.343L55.9068 65.343L54.6403 66.8909ZM54.3253 74.1359L52.9665 72.6684L52.9521 72.6817L52.938 72.6953L54.3253 74.1359ZM50.1043 76.5299L49.5296 74.6142L49.5161 74.6184L50.1043 76.5299ZM37.4413 57.0629L35.8321 55.8752L33.1155 59.5559L37.6621 59.0507L37.4413 57.0629ZM47.5213 54.2279L46.637 52.434L46.6269 52.4391L47.5213 54.2279ZM55.1443 49.1249L56.4984 50.5968L56.5063 50.5895L56.5141 50.5822L55.1443 49.1249ZM59.9323 43.2029L61.6824 44.1711L61.6824 44.1711L59.9323 43.2029ZM60.7513 35.7689L59.2328 37.0705L59.2586 37.1007L59.2857 37.1298L60.7513 35.7689ZM55.0813 35.8319L56.0019 37.6074L56.0274 37.5942L56.0526 37.5803L55.0813 35.8319ZM51.7423 38.0999L50.4504 36.5732L50.4356 36.5857L50.421 36.5985L51.7423 38.0999ZM48.8443 40.9349L47.3673 39.5864L47.3644 39.5896L48.8443 40.9349ZM46.8913 43.3289L48.5216 44.4874L48.5306 44.4747L48.5394 44.462L46.8913 43.3289ZM45.1903 45.7229L43.5599 44.5645L42.3852 46.2179L44.0548 47.3694L45.1903 45.7229ZM48.2773 48.6209L46.692 49.8404L46.7037 49.8555L46.7156 49.8703L48.2773 48.6209ZM48.2143 49.6919L49.8784 48.5825L49.8326 48.5138L49.7813 48.4492L48.2143 49.6919ZM44.6233 46.5419L45.6743 44.8403L44.0402 43.831L42.9656 45.423L44.6233 46.5419ZM41.1583 51.7709L42.8224 52.8803L42.8284 52.8713L42.8343 52.8623L41.1583 51.7709ZM32.9683 57.2519L32.8395 59.2478L33.8575 59.3135L34.5083 58.528L32.9683 57.2519ZM37.0003 51.7709L38.6595 52.8877L38.6595 52.8877L37.0003 51.7709ZM41.8513 45.2189L43.4072 46.4756L45.1354 44.3359L42.5672 43.3514L41.8513 45.2189ZM30.3853 44.2739L30.8872 46.2099L30.911 46.2038L30.9347 46.197L30.3853 44.2739ZM27.1093 45.6599L28.117 47.3875L28.1277 47.3813L28.1383 47.3749L27.1093 45.6599ZM25.0933 54.3539L26.4447 52.8796L26.4447 52.8796L25.0933 54.3539ZM28.8103 56.4329L29.4099 54.525L29.4099 54.525L28.8103 56.4329ZM15.7693 72.3719L15.0821 70.4937L15.0621 70.501L15.0422 70.5088L15.7693 72.3719ZM20.7463 69.7889L21.8757 71.4396L24.9559 69.332L21.4952 67.9345L20.7463 69.7889ZM14.3833 67.5839L13.7867 69.4929L13.8102 69.5002L13.8338 69.507L14.3833 67.5839ZM4.87029 67.3949L3.76089 65.7308L3.76089 65.7308L4.87029 67.3949ZM5.56329 71.9939L4.35451 73.5873L4.35451 73.5873L5.56329 71.9939ZM45.1273 75.2859C42.7988 75.2859 40.4621 74.9564 38.1125 74.2907L37.0221 78.1392C39.7124 78.9015 42.4158 79.2859 45.1273 79.2859V75.2859ZM38.0826 74.2825C35.6558 73.6353 33.2452 72.8051 30.8506 71.7904L29.29 75.4734C31.8513 76.5588 34.4388 77.4506 37.052 78.1474L38.0826 74.2825ZM30.8239 71.7794C28.3442 70.7707 25.9065 69.783 23.5107 68.8162L22.0139 72.5256C24.4061 73.4909 26.8404 74.4772 29.3167 75.4845L30.8239 71.7794ZM21.8513 68.8904C20.1391 69.7665 18.2762 70.5487 16.2595 71.2344L17.5471 75.0215C19.7304 74.2792 21.7735 73.4234 23.6732 72.4514L21.8513 68.8904ZM16.2258 71.2462C14.323 71.9312 12.3428 72.3128 10.2773 72.3893L10.4253 76.3866C12.8957 76.2951 15.2835 75.8367 17.5807 75.0097L16.2258 71.2462ZM10.3513 72.3879C7.74698 72.3879 6.24744 71.9005 5.46463 71.2945L3.01594 74.4574C4.83713 75.8673 7.4116 76.3879 10.3513 76.3879V72.3879ZM5.46463 71.2945C4.54875 70.5854 4.28729 69.9325 4.28729 69.2849H0.287285C0.287285 71.4094 1.32782 73.1505 3.01594 74.4574L5.46463 71.2945ZM4.28729 69.2849C4.28729 68.6077 4.57935 67.8307 5.58086 66.9261L2.89971 63.9577C1.29722 65.4051 0.287285 67.1902 0.287285 69.2849H4.28729ZM5.58086 66.9261C6.41154 66.1759 7.6833 65.6779 9.65829 65.6779V61.6779C7.01327 61.6779 4.67303 62.356 2.89971 63.9577L5.58086 66.9261ZM9.65829 65.6779C11.3637 65.6779 13.1987 66.0681 15.179 66.9059L16.7376 63.222C14.3498 62.2118 11.9849 61.6779 9.65829 61.6779V65.6779ZM15.179 66.9059C17.3102 67.8076 19.5313 68.856 21.8426 70.0529L23.682 66.501C21.2893 65.2619 18.9743 64.1683 16.7376 63.222L15.179 66.9059ZM24.0506 69.8068C25.7158 68.4045 27.3505 66.8342 28.9555 65.099L26.0191 62.3829C24.5161 64.0077 23.0008 65.4614 21.474 66.7471L24.0506 69.8068ZM28.9541 65.1005C30.5836 63.3424 32.1891 61.4798 33.7707 59.5135L30.6539 57.0064C29.1275 58.904 27.583 60.6955 26.0204 62.3814L28.9541 65.1005ZM32.36 56.2654C31.364 56.1916 30.2649 56.0048 29.058 55.6934L28.0585 59.5665C29.4557 59.9271 30.7926 60.1603 32.0645 60.2545L32.36 56.2654ZM29.133 55.7143C27.9889 55.3711 26.908 54.9344 25.8879 54.4054L24.0467 57.9565C25.2946 58.6035 26.6077 59.1328 27.9836 59.5456L29.133 55.7143ZM25.9386 54.4326C24.988 53.9045 24.2354 53.2934 23.6508 52.6114L20.6138 55.2145C21.5412 56.2965 22.6786 57.1974 23.996 57.9293L25.9386 54.4326ZM23.7149 52.69C23.2837 52.1321 23.0613 51.4958 23.0613 50.6999H19.0613C19.0613 52.34 19.5528 53.8458 20.5497 55.1358L23.7149 52.69ZM23.0613 50.6999C23.0613 49.7262 23.3302 49.0147 23.8002 48.4457L20.7164 45.8982C19.5904 47.2612 19.0613 48.9017 19.0613 50.6999H23.0613ZM23.8264 48.4133C24.4258 47.6562 25.2163 47.0155 26.2397 46.5038L24.4509 42.9261C22.9543 43.6744 21.6868 44.6717 20.6902 45.9305L23.8264 48.4133ZM26.2164 46.5153C27.3608 45.9615 28.5852 45.5522 29.8955 45.2901L29.1111 41.3678C27.4813 41.6937 25.9338 42.2083 24.4742 42.9146L26.2164 46.5153ZM29.9371 45.2813C31.3231 44.9733 32.6261 44.8249 33.8503 44.8249V40.8249C32.3025 40.8249 30.7075 41.0126 29.0694 41.3766L29.9371 45.2813ZM33.8503 44.8249C35.3686 44.8249 36.7905 44.9612 38.1201 45.2271L38.9045 41.3048C37.2941 40.9827 35.608 40.8249 33.8503 40.8249V44.8249ZM38.1744 45.2372C39.5354 45.4705 40.753 45.7965 41.835 46.2069L43.2536 42.4669C41.8995 41.9533 40.4291 41.5654 38.8502 41.2947L38.1744 45.2372ZM44.0922 45.6034C45.5482 43.8239 47.0811 42.1907 48.6904 40.7021L45.9742 37.7657C44.2235 39.3852 42.5644 41.154 40.9964 43.0705L44.0922 45.6034ZM48.7098 40.6839C50.2765 39.1955 51.8759 38.0257 53.5046 37.1545L51.618 33.6274C49.6347 34.6882 47.7481 36.0803 45.9548 37.7839L48.7098 40.6839ZM53.4878 37.1634C55.0664 36.3382 56.6612 35.9419 58.2943 35.9419V31.9419C55.9794 31.9419 53.7521 32.5117 51.6348 33.6185L53.4878 37.1634ZM58.2943 35.9419C59.5969 35.9419 60.1271 36.2869 60.3668 36.5665L63.4038 33.9634C62.1315 32.479 60.2677 31.9419 58.2943 31.9419V35.9419ZM60.4353 36.6424C60.8239 37.0515 61.0823 37.6216 61.0823 38.5409H65.0823C65.0823 36.7723 64.5427 35.1584 63.3353 33.8874L60.4353 36.6424ZM61.0823 38.5409C61.0823 39.7624 60.6501 41.3109 59.5733 43.2337L63.0633 45.1881C64.3385 42.911 65.0823 40.6795 65.0823 38.5409H61.0823ZM59.5585 43.2606C58.5608 45.1082 57.0254 46.9889 54.8866 48.8901L57.544 51.8798C59.9412 49.7489 61.8078 47.5137 63.0781 45.1612L59.5585 43.2606ZM54.8866 48.8901C52.8056 50.7399 50.2035 52.3548 47.0456 53.7139L48.6269 57.388C52.1051 55.8911 55.089 54.062 57.544 51.8798L54.8866 48.8901ZM47.0371 53.7176C43.9991 55.0418 40.4632 55.8815 36.4014 56.2032L36.7172 60.1907C41.1393 59.8404 45.1215 58.9161 48.6355 57.3843L47.0371 53.7176ZM34.974 56.9775C33.3463 59.0935 31.5974 61.0864 29.7271 62.9567L32.5555 65.7852C34.5492 63.7915 36.4122 61.6683 38.1445 59.4164L34.974 56.9775ZM29.7116 62.9724C27.9355 64.788 25.9625 66.3665 23.7896 67.7098L25.8929 71.1121C28.3401 69.5994 30.5671 67.8179 32.571 65.7695L29.7116 62.9724ZM23.9323 71.1925C26.0049 72.2499 28.0984 73.286 30.2128 74.301L31.9437 70.6949C29.8582 69.6938 27.7937 68.672 25.7502 67.6294L23.9323 71.1925ZM30.198 74.2938C32.4444 75.395 34.7406 76.2787 37.0856 76.9424L38.1749 73.0935C36.068 72.4972 33.9962 71.7009 31.9586 70.7021L30.198 74.2938ZM37.0621 76.9355C39.5135 77.6619 42.0148 78.0259 44.5603 78.0259V74.0259C42.4018 74.0259 40.2831 73.718 38.1985 73.1003L37.0621 76.9355ZM44.5603 78.0259C46.0944 78.0259 47.6204 77.8099 49.1338 77.3842L48.0508 73.5336C46.8762 73.864 45.7142 74.0259 44.5603 74.0259V78.0259ZM49.0774 77.3992C50.751 76.9808 52.2126 76.1791 53.4085 74.9832L50.5801 72.1547C49.928 72.8068 49.1216 73.2651 48.1072 73.5187L49.0774 77.3992ZM53.3752 75.0157C54.778 73.6767 55.3803 71.8884 55.3803 69.9149H51.3803C51.3803 71.0494 51.0586 71.6972 50.6133 72.1222L53.3752 75.0157ZM55.3803 69.9149C55.3803 67.8357 54.5157 66.0528 52.6506 65.0166L50.708 68.5133C51.1109 68.7371 51.3803 69.0542 51.3803 69.9149H55.3803ZM52.6787 65.0326C51.2121 64.1864 49.5023 63.8199 47.6473 63.8199V67.8199C48.9842 67.8199 49.9625 68.0834 50.6798 68.4973L52.6787 65.0326ZM47.6473 63.8199C46.3276 63.8199 44.9401 64.0478 43.4987 64.4663L44.6139 68.3076C45.7765 67.9701 46.783 67.8199 47.6473 67.8199V63.8199ZM43.541 64.4545C42.0764 64.845 40.7531 65.4457 39.6039 66.2815L41.9566 69.5164C42.6555 69.0082 43.5162 68.6009 44.5716 68.3194L43.541 64.4545ZM39.5803 66.2989C39.5865 66.2943 39.646 66.2496 39.7562 66.2024C39.8671 66.1549 40.0691 66.0879 40.3393 66.0879V70.0879C41.1023 70.0879 41.6761 69.7271 41.9803 69.4989L39.5803 66.2989ZM40.3393 66.0879C40.4353 66.0879 40.8572 66.0925 41.3069 66.3923C41.5584 66.56 41.7916 66.8038 41.951 67.1227C42.1062 67.4332 42.1503 67.7317 42.1503 67.9619H38.1503C38.1503 68.5865 38.4322 69.2833 39.0881 69.7205C39.6009 70.0624 40.1172 70.0879 40.3393 70.0879V66.0879ZM42.1503 67.9619C42.1503 68.2371 42.0719 68.4532 41.9992 68.5886C41.9318 68.7143 41.8708 68.7695 41.8777 68.7629C41.8825 68.7583 41.9232 68.7214 42.0217 68.6572C42.118 68.5945 42.2517 68.5173 42.4307 68.4278L40.6419 64.8501C40.0971 65.1225 39.552 65.4531 39.1158 65.8695C38.6932 66.2729 38.1503 66.9763 38.1503 67.9619H42.1503ZM42.494 68.3947C43.2495 67.9826 44.1866 67.6157 45.3276 67.3114L44.297 63.4465C42.918 63.8142 41.671 64.2873 40.5786 64.8832L42.494 68.3947ZM45.3699 67.2996C46.5576 66.9548 47.4959 66.8119 48.2143 66.8119V62.8119C47.0007 62.8119 45.6709 63.0471 44.2547 63.4583L45.3699 67.2996ZM48.2143 66.8119C48.9064 66.8119 49.7919 66.9395 50.8954 67.2439L51.9591 63.388C50.6266 63.0204 49.3702 62.8119 48.2143 62.8119V66.8119ZM50.958 67.2601C51.8987 67.4872 52.6939 67.8826 53.3738 68.4389L55.9068 65.343C54.7386 64.3873 53.3919 63.7327 51.8966 63.3718L50.958 67.2601ZM53.3738 68.4389C53.7714 68.7642 54.0263 69.2117 54.0263 70.0409H58.0263C58.0263 68.1822 57.3571 66.5297 55.9068 65.343L53.3738 68.4389ZM54.0263 70.0409C54.0263 71.2179 53.6536 72.0322 52.9665 72.6684L55.6841 75.6035C57.265 74.1397 58.0263 72.2239 58.0263 70.0409H54.0263ZM52.938 72.6953C52.0584 73.5424 50.9401 74.1911 49.5296 74.6143L50.679 78.4456C52.6285 77.8607 54.3242 76.9135 55.7126 75.5766L52.938 72.6953ZM49.5161 74.6184C48.0648 75.0649 46.6039 75.2859 45.1273 75.2859V79.2859C47.0107 79.2859 48.8678 79.0029 50.6925 78.4415L49.5161 74.6184ZM37.6621 59.0507C41.6404 58.6087 45.2344 57.6075 48.4157 56.0168L46.6269 52.4391C43.9282 53.7884 40.8022 54.6772 37.2204 55.0752L37.6621 59.0507ZM48.4056 56.0218C51.5312 54.481 54.237 52.6773 56.4984 50.5968L53.7902 47.6531C51.8515 49.4366 49.4753 51.0349 46.637 52.4341L48.4056 56.0218ZM56.5141 50.5822C58.7256 48.5034 60.4663 46.3692 61.6824 44.1711L58.1822 42.2348C57.2142 43.9846 55.7629 45.7985 53.7745 47.6677L56.5141 50.5822ZM61.6824 44.1711C62.8524 42.056 63.5703 40.0082 63.5703 38.0999H59.5703C59.5703 39.0477 59.1962 40.4019 58.1822 42.2348L61.6824 44.1711ZM63.5703 38.0999C63.5703 36.7379 63.1739 35.4387 62.2169 34.408L59.2857 37.1298C59.4207 37.2752 59.5703 37.5299 59.5703 38.0999H63.5703ZM62.2698 34.4674C61.2495 33.277 59.7847 32.8869 58.3573 32.8869V36.8869C58.7311 36.8869 58.9586 36.9382 59.0834 36.9841C59.1943 37.025 59.2242 37.0605 59.2328 37.0705L62.2698 34.4674ZM58.3573 32.8869C56.8962 32.8869 55.472 33.327 54.11 34.0836L56.0526 37.5803C56.9586 37.0769 57.7184 36.8869 58.3573 36.8869V32.8869ZM54.1607 34.0564C52.8793 34.7208 51.6431 35.564 50.4504 36.5732L53.0342 39.6267C54.0255 38.7879 55.0153 38.119 56.0019 37.6074L54.1607 34.0564ZM50.421 36.5985C49.3201 37.5673 48.3016 38.5631 47.3673 39.5864L50.3213 42.2835C51.1509 41.3748 52.0645 40.4806 53.0635 39.6014L50.421 36.5985ZM47.3644 39.5896C46.4919 40.5494 45.7757 41.4213 45.2432 42.1959L48.5394 44.462C48.9309 43.8926 49.5167 43.1685 50.3242 42.2803L47.3644 39.5896ZM45.2609 42.1705L43.5599 44.5645L46.8206 46.8814L48.5216 44.4874L45.2609 42.1705ZM44.0548 47.3694C45.1143 48.1 45.9879 48.925 46.692 49.8404L49.8625 47.4015C48.8867 46.1329 47.7023 45.0259 46.3258 44.0765L44.0548 47.3694ZM46.7156 49.8703C46.5044 49.6064 46.5293 49.3982 46.5293 49.5029H50.5293C50.5293 48.8517 50.3862 48.0555 49.839 47.3716L46.7156 49.8703ZM46.5293 49.5029C46.5293 49.5706 46.5172 49.4037 46.6004 49.154C46.6439 49.0236 46.7593 48.728 47.0442 48.4431C47.3783 48.109 47.8592 47.8809 48.4033 47.8809V51.8809C49.7738 51.8809 50.287 50.7432 50.3952 50.4189C50.5204 50.0432 50.5293 49.6873 50.5293 49.5029H46.5293ZM48.4033 47.8809C48.8846 47.8809 49.2328 48.0557 49.3968 48.1541C49.5716 48.259 49.6862 48.367 49.7388 48.4195C49.7976 48.4784 49.8356 48.5256 49.8521 48.5467C49.8616 48.559 49.8683 48.5682 49.8723 48.5738C49.8763 48.5794 49.8783 48.5824 49.8784 48.5825L46.5502 50.8013C46.6222 50.9093 46.7434 51.081 46.9103 51.2479C46.9943 51.3319 47.1378 51.4635 47.3389 51.5841C47.5292 51.6983 47.901 51.8809 48.4033 51.8809V47.8809ZM49.7813 48.4492C48.6601 47.0355 47.2838 45.8345 45.6743 44.8403L43.5723 48.2435C44.8188 49.0134 45.8365 49.9124 46.6473 50.9347L49.7813 48.4492ZM42.9656 45.423C41.825 47.1127 40.6639 48.8649 39.4823 50.6796L42.8343 52.8623C44.0046 51.065 45.1535 49.3312 46.281 47.6609L42.9656 45.423ZM39.4942 50.6615C38.3365 52.3981 37.1158 54.136 35.8321 55.8752L39.0504 58.2506C40.3707 56.4619 41.6281 54.6718 42.8224 52.8803L39.4942 50.6615ZM34.5083 58.528C35.7811 56.9919 37.1652 55.1078 38.6595 52.8877L35.3411 50.6542C33.8954 52.8021 32.5915 54.572 31.4282 55.9759L34.5083 58.528ZM38.6595 52.8877C40.095 50.7549 41.6772 48.6174 43.4072 46.4756L40.2954 43.9623C38.4973 46.1884 36.8455 48.419 35.3411 50.6542L38.6595 52.8877ZM42.5672 43.3514C39.7928 42.2879 36.7747 41.7699 33.5353 41.7699V45.7699C36.3439 45.7699 38.8698 46.2179 41.1354 47.0864L42.5672 43.3514ZM33.5353 41.7699C32.3766 41.7699 31.1365 41.9793 29.8358 42.3509L30.9347 46.197C31.9861 45.8966 32.846 45.7699 33.5353 45.7699V41.7699ZM29.8834 42.3379C28.5558 42.6821 27.287 43.2209 26.0803 43.945L28.1383 47.3749C29.0315 46.839 29.9468 46.4537 30.8872 46.2099L29.8834 42.3379ZM26.1015 43.9324C24.8793 44.6453 23.8374 45.5517 22.9984 46.6529L26.1801 49.077C26.6852 48.4142 27.3232 47.8505 28.117 47.3875L26.1015 43.9324ZM22.9984 46.6529C22.0443 47.9051 21.5813 49.3664 21.5813 50.9519H25.5813C25.5813 50.1855 25.7902 49.5888 26.1801 49.077L22.9984 46.6529ZM21.5813 50.9519C21.5813 52.8676 22.3288 54.5329 23.7418 55.8283L26.4447 52.8796C25.8418 52.3269 25.5813 51.7243 25.5813 50.9519H21.5813ZM23.7418 55.8282C24.9916 56.9738 26.4969 57.8023 28.2106 58.3409L29.4099 54.525C28.1837 54.1396 27.211 53.582 26.4447 52.8796L23.7418 55.8282ZM28.2106 58.3409C29.8068 58.8426 31.3519 59.1518 32.8395 59.2478L33.0971 55.2561C31.9807 55.1841 30.7538 54.9473 29.4099 54.525L28.2106 58.3409ZM10.3513 75.3799C12.4843 75.3799 14.5374 74.9996 16.4964 74.2351L15.0422 70.5088C13.5572 71.0883 11.9982 71.3799 10.3513 71.3799V75.3799ZM16.4564 74.2502C18.343 73.56 20.1498 72.6204 21.8757 71.4396L19.6169 68.1383C18.1508 69.1415 16.6395 69.9239 15.0821 70.4937L16.4564 74.2502ZM21.4952 67.9345C19.2524 67.0287 17.0647 66.27 14.9327 65.6609L13.8338 69.507C15.8179 70.0739 17.8722 70.7852 19.9974 71.6434L21.4952 67.9345ZM14.9798 65.675C12.7978 64.9931 10.6641 64.6389 8.58729 64.6389V68.6389C10.2064 68.6389 11.9368 68.9148 13.7867 69.4929L14.9798 65.675ZM8.58729 64.6389C6.77021 64.6389 5.02818 64.886 3.76089 65.7308L5.97969 69.059C6.22439 68.8959 6.96036 68.6389 8.58729 68.6389V64.6389ZM3.76089 65.7308C2.61934 66.4919 1.73629 67.6571 1.73629 69.2219H5.73629C5.73629 69.2212 5.73632 69.2246 5.73539 69.2314C5.73445 69.2382 5.73279 69.2465 5.73021 69.2556C5.72452 69.2755 5.71807 69.286 5.71907 69.2844C5.7226 69.2787 5.77807 69.1935 5.97969 69.059L3.76089 65.7308ZM1.73629 69.2219C1.73629 71.089 2.96177 72.5308 4.35451 73.5873L6.77206 70.4006C6.27976 70.0271 6.00522 69.7232 5.86295 69.5073C5.79478 69.4039 5.76389 69.3312 5.74999 69.289C5.73688 69.2492 5.73629 69.2292 5.73629 69.2219H1.73629ZM4.35451 73.5873C6.00993 74.8432 8.06859 75.3799 10.3513 75.3799V71.3799C8.68598 71.3799 7.55264 70.9927 6.77206 70.4006L4.35451 73.5873Z" fill="#F0F0F0" mask="url(#path-3-outside-1_6_16)"/>
</svg>
